<svg xmlns="http://www.w3.org/2000/svg" xmlns:xlink="http://www.w3.org/1999/xlink" width="568" height="243" version="1.1" viewBox="0 0 568 243"><title>engine-architecture</title><desc>Created with Sketch.</desc><defs><rect id="path-1" width="62" height="28" x="0" y="0" rx="14"/><rect id="path-2" width="62" height="28" x="0" y="0" rx="14"/><rect id="path-3" width="62" height="28" x="0" y="0" rx="14"/><rect id="path-4" width="152" height="28" x="0" y="0" rx="14"/><rect id="path-5" width="95" height="28" x="0" y="0" rx="14"/><rect id="path-6" width="90" height="28" x="0" y="0" rx="14"/><rect id="path-7" width="90" height="28" x="0" y="0" rx="14"/><rect id="path-8" width="171.9" height="37.8" x="0" y="0" rx="18.9"/><rect id="path-9" width="172" height="38" x="0" y="0" rx="19"/></defs><g id="Page-1" fill="none" fill-rule="evenodd" stroke="none" stroke-width="1"><g id="engine-architecture"><g id="Paths" stroke="#14CBC4" stroke-width="1.6" transform="translate(44.000000, 23.000000)"><path id="Path-4-Copy" d="M36.1471471,-35.2 C189.516517,-35.2 80.8798799,227.2 227.858859,227.2" transform="translate(132.003003, 96.000000) rotate(-270.000000) translate(-132.003003, -96.000000)"/><path id="Path-4-Copy-2" d="M40.1411411,-35.2 C193.510511,-35.2 84.8738739,227.2 231.852853,227.2" transform="translate(135.996997, 96.000000) scale(-1, 1) rotate(-270.000000) translate(-135.996997, -96.000000)"/><path id="Line-3" d="M134.798799,2.4 L134.798799,191.614937"/><ellipse id="Oval-5-Copy-15" cx="23.366" cy="56" fill="#FFF" rx="4.793" ry="4.8"/><ellipse id="Oval-5-Copy-19" cx="20.97" cy="136.8" fill="#FFF" rx="4.793" ry="4.8"/><ellipse id="Oval-5-Copy-18" cx="135.198" cy="168.8" fill="#FFF" rx="4.793" ry="4.8"/><ellipse id="Oval-5-Copy-17" cx="235.048" cy="65.6" fill="#FFF" rx="4.793" ry="4.8"/><ellipse id="Oval-5-Copy-20" cx="231.054" cy="124" fill="#FFF" rx="4.793" ry="4.8"/></g><g id="Group-2" stroke="#E535AB" transform="translate(265.000000, 102.600006)"><path id="Line-3" stroke-dasharray="6 6" stroke-width="1.8" d="M128.5,7.5 L0.5,7.5"/><ellipse id="Oval-5-Copy-17" cx="65.793" cy="7.5" fill="#FFF" stroke-width="1.6" rx="4.793" ry="4.8" transform="translate(65.792793, 7.500012) rotate(-39.000000) translate(-65.792793, -7.500012)"/></g><g id="diagram-primary" transform="translate(18.000000, 0.000000)"><g id="diagram-button"><g id="Rectangle-12-Copy-5"><use fill="#FFF" fill-rule="evenodd" xlink:href="#path-1"/><rect width="60.4" height="26.4" x=".8" y=".8" stroke="#14CBC4" stroke-width="1.6" rx="13.2"/></g><text id="Browser" fill="#343C5A" font-family="SourceSansPro-Semibold, Source Sans Pro" font-size="11" font-weight="500" letter-spacing=".393"><tspan x="20.626" y="17">Web</tspan></text></g></g><g id="diagram-primary" transform="translate(148.000000, 0.000000)"><g id="diagram-button"><g id="Rectangle-12-Copy-5"><use fill="#FFF" fill-rule="evenodd" xlink:href="#path-2"/><rect width="60.4" height="26.4" x=".8" y=".8" stroke="#14CBC4" stroke-width="1.6" rx="13.2"/></g><text id="Browser" fill="#343C5A" font-family="SourceSansPro-Semibold, Source Sans Pro" font-size="11" font-weight="500" letter-spacing=".393"><tspan x="22.765" y="17">iOS</tspan></text></g></g><g id="diagram-primary" transform="translate(276.000000, 0.000000)"><g id="diagram-button"><g id="Rectangle-12-Copy-5"><use fill="#FFF" fill-rule="evenodd" xlink:href="#path-3"/><rect width="60.4" height="26.4" x=".8" y=".8" stroke="#14CBC4" stroke-width="1.6" rx="13.2"/></g><text id="Browser" fill="#343C5A" font-family="SourceSansPro-Semibold, Source Sans Pro" font-size="11" font-weight="500" letter-spacing=".393"><tspan x="11.315" y="17">Android</tspan></text></g></g><g id="diagram-primary" transform="translate(103.100000, 124.400000)"><g id="diagram-button"><g id="Rectangle-12-Copy-5"><use fill="#FFF" fill-rule="evenodd" xlink:href="#path-4"/><rect width="150.4" height="26.4" x=".8" y=".8" stroke="#14CBC4" stroke-width="1.6" rx="13.2"/></g><text id="Browser" fill="#343C5A" font-family="SourceSansPro-Semibold, Source Sans Pro" font-size="11" font-weight="500" letter-spacing=".393"><tspan x="37.081" y="17">GraphQL Server</tspan></text></g></g><g id="diagram-primary" transform="translate(132.000000, 214.000000)"><g id="diagram-button"><g id="Rectangle-12-Copy-5"><use fill="#FFF" fill-rule="evenodd" xlink:href="#path-5"/><rect width="93.4" height="26.4" x=".8" y=".8" stroke="#14CBC4" stroke-width="1.6" rx="13.2"/></g><text id="Browser" fill="#343C5A" font-family="SourceSansPro-Semibold, Source Sans Pro" font-size="11" font-weight="500" letter-spacing=".393"><tspan x="16.176" y="17">Microservice</tspan></text></g></g><g id="diagram-primary" transform="translate(266.000000, 215.000000)"><g id="diagram-button"><g id="Rectangle-12-Copy-5"><use fill="#FFF" fill-rule="evenodd" xlink:href="#path-6"/><rect width="88.4" height="26.4" x=".8" y=".8" stroke="#14CBC4" stroke-width="1.6" rx="13.2"/></g><text id="Browser" fill="#343C5A" font-family="SourceSansPro-Semibold, Source Sans Pro" font-size="11" font-weight="500" letter-spacing=".393"><tspan x="22.348" y="17">3rd Party</tspan></text></g></g><g id="diagram-primary" transform="translate(0.000000, 214.000000)"><g id="diagram-button"><g id="Rectangle-12-Copy-5"><use fill="#FFF" fill-rule="evenodd" xlink:href="#path-7"/><rect width="88.4" height="26.4" x=".8" y=".8" stroke="#14CBC4" stroke-width="1.6" rx="13.2"/></g><text id="Browser" fill="#343C5A" font-family="SourceSansPro-Semibold, Source Sans Pro" font-size="11" font-weight="500" letter-spacing=".393"><tspan x="23.128" y="17">REST API</tspan></text></g></g><g id="Engine" transform="translate(93.000000, 91.000000)"><g id="Rectangle-12-Copy-8"><use fill="#FFF" fill-rule="evenodd" xlink:href="#path-8"/><rect width="170.1" height="36" x=".9" y=".9" stroke="#E535AB" stroke-width="1.8" rx="18"/></g><text id="Engine-Proxy" fill="#343C5A" font-family="SourceSansPro-Semibold, Source Sans Pro" font-size="12.6" font-weight="500" letter-spacing=".45"><tspan x="58.852" y="23.8">Engine Proxy</tspan></text><g id="apollo-mark" transform="translate(32.400000, 9.900000)"><g id="Group-3"><circle id="Oval-3" cx="9.9" cy="9.9" r="9.9" fill="#FFF"/><g id="icon-apollo-space" transform="translate(1.980000, 0.180000)"><g id="Layer_2" transform="translate(0.000000, 0.000000)"><g id="Apollo_icon_grey-link" transform="translate(8.550000, 9.090000) scale(-1, 1) rotate(-180.000000) translate(-8.550000, -9.090000) translate(0.000000, 0.540000)"><g id="Apollo_icon_grey" transform="translate(-0.000000, 0.000000)"><polygon id="Shape" points="15.151 .459 .459 .459 .459 15.151 15.151 15.151"/><g id="Group" fill="#343C5A" fill-rule="nonzero" transform="translate(0.041322, 0.041322)"><polygon id="Shape" points="8.691 11.682 6.823 11.682 4.126 4.684 5.816 4.684 6.256 5.869 8.804 5.869 8.343 7.181 6.666 7.181 7.757 10.192 9.698 4.684 11.387 4.684"/><path id="Shape" d="M15.1534372,9.81076013 C15.1489176,9.83466383 15.1423893,9.8576636 15.1337518,9.87985989 C15.1316427,9.88749301 15.1245118,9.90185531 15.1245118,9.90185531 C15.0635473,10.0341291 14.9300682,10.1262287 14.7747946,10.1262287 C14.5620718,10.1262287 14.3896237,9.95378057 14.3896237,9.74105776 C14.3896237,9.69776997 14.397056,9.65639046 14.4102131,9.61762228 L14.4092087,9.61722054 C14.5790455,9.01189457 14.6669267,8.37955139 14.6669267,7.73354897 C14.6669267,5.88161508 13.9456979,4.14046177 12.6362173,2.83088066 C11.3266362,1.52119913 9.58548286,0.800070793 7.73354897,0.800070793 C5.88161508,0.800070793 4.14036133,1.52129956 2.83088066,2.83088066 C1.52119913,4.14046177 0.800070793,5.88161508 0.800070793,7.73354897 C0.800070793,9.58548286 1.52129956,11.3266362 2.83088066,12.6362173 C4.14036133,13.9458988 5.88161508,14.6669267 7.73354897,14.6669267 C9.38732322,14.6669267 10.9523123,14.0914301 12.2008285,13.0358509 C12.1588464,12.9290878 12.1354449,12.8128837 12.1354449,12.6911556 C12.1354449,12.1710995 12.5570739,11.7495709 13.0770296,11.7495709 C13.5970856,11.7495709 14.0187147,12.1710995 14.0187147,12.6911556 C14.0187147,13.2112117 13.5970856,13.6327403 13.0770296,13.6327403 C12.9636377,13.6327403 12.8548658,13.6127536 12.7540283,13.5759941 C11.4056791,14.735926 9.65177042,15.4374694 7.73354897,15.4374694 C3.47879137,15.4374694 0.0297289675,11.9883066 0.0297289675,7.73354897 C0.0297289675,3.47879137 3.47879137,0.0296285318 7.73354897,0.0296285318 C11.9882061,0.0296285318 15.437369,3.47879137 15.437369,7.73354897 C15.437369,8.4532712 15.3380381,9.14989322 15.1534372,9.81076013 Z"/></g></g></g></g></g></g></g></g><g id="Engine" transform="translate(396.000000, 91.000000)"><g id="Rectangle-12-Copy-8"><use fill="#FFF" fill-rule="evenodd" xlink:href="#path-9"/><rect width="170.2" height="36.2" x=".9" y=".9" stroke="#E535AB" stroke-width="1.8" rx="18.1"/></g><text id="Engine-Service" fill="#343C5A" font-family="SourceSansPro-Semibold, Source Sans Pro" font-size="12.6" font-weight="500" letter-spacing=".45"><tspan x="54.223" y="24">Engine Service</tspan></text><g id="apollo-mark" transform="translate(32.000000, 10.000000)"><g id="Group-3"><circle id="Oval-3" cx="10" cy="10" r="10" fill="#FFF"/><g id="icon-apollo-space" transform="translate(2.000000, 0.181818)"><g id="Layer_2" transform="translate(0.000000, 0.000000)"><g id="Apollo_icon_grey-link" transform="translate(8.500000, 9.318182) scale(-1, 1) rotate(-180.000000) translate(-8.500000, -9.318182) translate(0.000000, 0.818182)"><g id="Apollo_icon_grey" transform="translate(-0.000000, 0.000000)"><polygon id="Shape" points="15.304 .464 .464 .464 .464 15.304 15.304 15.304"/><g id="Group" fill="#343C5A" fill-rule="nonzero" transform="translate(0.041739, 0.041739)"><polygon id="Shape" points="8.778 11.8 6.892 11.8 4.168 4.731 5.874 4.731 6.32 5.929 8.893 5.929 8.427 7.253 6.733 7.253 7.835 10.295 9.796 4.731 11.502 4.731"/><path id="Shape" d="M15.3065023,9.90985872 C15.301937,9.93400387 15.2953427,9.95723596 15.286618,9.97965646 C15.2844876,9.98736667 15.2772846,10.0018741 15.2772846,10.0018741 C15.2157043,10.135484 15.080877,10.2285138 14.924035,10.2285138 C14.7091635,10.2285138 14.5349735,10.0543238 14.5349735,9.83945228 C14.5349735,9.79572724 14.5424808,9.75392976 14.5557708,9.71476998 L14.5547563,9.71436418 C14.7263086,9.10292381 14.8150775,8.46419333 14.8150775,7.81166562 C14.8150775,5.94102533 14.0865636,4.18228461 12.7638558,2.85947542 C11.4410466,1.53656477 9.68230591,0.808152316 7.81166562,0.808152316 C5.94102533,0.808152316 4.18218316,1.53666622 2.85947542,2.85947542 C1.53656477,4.18228461 0.808152316,5.94102533 0.808152316,7.81166562 C0.808152316,9.68230591 1.53666622,11.4410466 2.85947542,12.7638558 C4.18218316,14.0867665 5.94102533,14.8150775 7.81166562,14.8150775 C9.48214466,14.8150775 11.0629417,14.2337678 12.3240692,13.1675262 C12.281663,13.0596846 12.2580251,12.9423067 12.2580251,12.8193491 C12.2580251,12.2940399 12.6839131,11.8682534 13.2091208,11.8682534 C13.7344299,11.8682534 14.1603179,12.2940399 14.1603179,12.8193491 C14.1603179,13.3446582 13.7344299,13.7704447 13.2091208,13.7704447 C13.0945835,13.7704447 12.9847129,13.7502562 12.8828569,13.7131254 C11.5208879,14.8847738 9.74926305,15.5934034 7.81166562,15.5934034 C3.51393068,15.5934034 0.0300292601,12.1094006 0.0300292601,7.81166562 C0.0300292601,3.51393068 3.51393068,0.0299278099 7.81166562,0.0299278099 C12.1092991,0.0299278099 15.593302,3.51393068 15.593302,7.81166562 C15.593302,8.53865778 15.4929677,9.24231638 15.3065023,9.90985872 Z"/></g></g></g></g></g></g></g></g></g></g></svg>